# xmcd
#
# Track frame offsets: 
#        150
#        22452
#        42867
#        70559
#        88778
#        104771
#        126299
#        147298
#        176355
#        191512
#        216868
#        246139
#
# Disc length: 3530 seconds
#
# Revision: 0
# Processed by: cddbd v1.5.1PL0 Copyright (c) Steve Scherf et al.
# Submitted via: ExactAudioCopy v0.95a5
#
DISCID=b10dc80c
DTITLE=Jorma Kaukonen - 2000-07-20 BB King Blues Club New York, NY 
DYEAR=2000
DGENRE=Blues
TTITLE0=Third Week In The Chelsea
TTITLE1=Too Many Years
TTITLE2=Winin' Boy Blues
TTITLE3=I'll Be All Right Someday
TTITLE4=Home Of The Blues
TTITLE5=Follow The Drinking Gourd
TTITLE6=Genesis
TTITLE7=Ice Age
TTITLE8=Don't You Leave Me Here
TTITLE9=Mann's Fate
TTITLE10=Keep Your Lamps Trimmed And Burning
TTITLE11=San Francisco Bay Blues
EXTD=
EXTT0=
EXTT1=
EXTT2=
EXTT3=
EXTT4=
EXTT5=
EXTT6=
EXTT7=
EXTT8=
EXTT9=
EXTT10=
EXTT11=
PLAYORDER=
